<svg width="21" height="21" viewBox="0 0 21 21" fill="none" xmlns="http://www.w3.org/2000/svg">
<path d="M10.5 0.0833435C4.704 0.0833435 0 4.75001 0 10.5C0 16.25 4.704 20.9167 10.5 20.9167H15.75V18.8333H10.5C5.943 18.8333 2.1 15.0208 2.1 10.5C2.1 5.97918 5.943 2.16668 10.5 2.16668C15.057 2.16668 18.9 5.97918 18.9 10.5V11.9896C18.9 12.8125 18.1545 13.625 17.325 13.625C16.4955 13.625 15.75 12.8125 15.75 11.9896V10.5C15.75 7.62501 13.398 5.29168 10.5 5.29168C7.602 5.29168 5.25 7.62501 5.25 10.5C5.25 13.375 7.602 15.7083 10.5 15.7083C11.949 15.7083 13.272 15.125 14.217 14.1771C14.8995 15.1042 16.0755 15.7083 17.325 15.7083C19.3935 15.7083 21 14.0417 21 11.9896V10.5C21 4.75001 16.296 0.0833435 10.5 0.0833435ZM10.5 13.625C8.757 13.625 7.35 12.2292 7.35 10.5C7.35 8.77084 8.757 7.37501 10.5 7.37501C12.243 7.37501 13.65 8.77084 13.65 10.5C13.65 12.2292 12.243 13.625 10.5 13.625Z" fill="white"/>
</svg>
