<svg width="34" height="34" viewBox="0 0 34 34" fill="none" xmlns="http://www.w3.org/2000/svg">
<path d="M24.0625 21.25H22.5813L22.0563 20.7437C23.8938 18.6063 25 15.8313 25 12.8125C25 6.08125 19.5438 0.625 12.8125 0.625C6.08125 0.625 0.625 6.08125 0.625 12.8125C0.625 19.5438 6.08125 25 12.8125 25C15.8313 25 18.6063 23.8938 20.7438 22.0563L21.25 22.5813V24.0625L30.625 33.4188L33.4188 30.625L24.0625 21.25ZM12.8125 21.25C8.14375 21.25 4.375 17.4813 4.375 12.8125C4.375 8.14375 8.14375 4.375 12.8125 4.375C17.4813 4.375 21.25 8.14375 21.25 12.8125C21.25 17.4813 17.4813 21.25 12.8125 21.25Z" fill="black"/>
</svg>
