<svg width="29" height="29" viewBox="0 0 21 29" fill="none" xmlns="http://www.w3.org/2000/svg">
<path d="M10.5 21.7188C11.9438 21.7188 13.125 20.5375 13.125 19.0938C13.125 17.65 11.9438 16.4688 10.5 16.4688C9.05625 16.4688 7.875 17.65 7.875 19.0938C7.875 20.5375 9.05625 21.7188 10.5 21.7188ZM18.375 9.90624H17.0625V7.28124C17.0625 3.65874 14.1225 0.718735 10.5 0.718735C6.8775 0.718735 3.9375 3.65874 3.9375 7.28124V9.90624H2.625C1.18125 9.90624 0 11.0875 0 12.5312V25.6563C0 27.1 1.18125 28.2813 2.625 28.2813H18.375C19.8188 28.2813 21 27.1 21 25.6563V12.5312C21 11.0875 19.8188 9.90624 18.375 9.90624ZM6.43125 7.28124C6.43125 5.03686 8.25562 3.21249 10.5 3.21249C12.7444 3.21249 14.5688 5.03686 14.5688 7.28124V9.90624H6.43125V7.28124ZM18.375 25.6563H2.625V12.5312H18.375V25.6563Z" fill="white"/>
</svg>
