<svg width="31" height="31" viewBox="0 0 31 31" fill="none" xmlns="http://www.w3.org/2000/svg">
<path d="M15.5 4.0625C17.675 4.0625 19.4375 5.825 19.4375 7.99999C19.4375 10.175 17.675 11.9375 15.5 11.9375C13.325 11.9375 11.5625 10.175 11.5625 7.99999C11.5625 5.825 13.325 4.0625 15.5 4.0625ZM15.5 20.9375C21.0687 20.9375 26.9375 23.675 26.9375 24.875V26.9375H4.0625V24.875C4.0625 23.675 9.93124 20.9375 15.5 20.9375ZM15.5 0.5C11.3562 0.5 7.99999 3.85625 7.99999 7.99999C7.99999 12.1437 11.3562 15.5 15.5 15.5C19.6437 15.5 23 12.1437 23 7.99999C23 3.85625 19.6437 0.5 15.5 0.5ZM15.5 17.375C10.4937 17.375 0.5 19.8875 0.5 24.875V30.5H30.5V24.875C30.5 19.8875 20.5062 17.375 15.5 17.375Z" fill="black"/>
</svg>
