<svg width="24" height="26" viewBox="0 0 24 26" fill="none" xmlns="http://www.w3.org/2000/svg">
<path d="M19.425 18.033C18.4782 18.033 17.631 18.4068 16.9832 18.9923L8.10036 13.8221C8.16265 13.5355 8.21249 13.249 8.21249 12.95C8.21249 12.651 8.16265 12.3645 8.10036 12.0779L16.8835 6.95754C17.5562 7.58046 18.4408 7.96667 19.425 7.96667C21.4931 7.96667 23.1625 6.29725 23.1625 4.22917C23.1625 2.16109 21.4931 0.491669 19.425 0.491669C17.3569 0.491669 15.6875 2.16109 15.6875 4.22917C15.6875 4.52817 15.7373 4.81471 15.7996 5.10125L7.01649 10.2216C6.34374 9.59871 5.4592 9.2125 4.47499 9.2125C2.4069 9.2125 0.737488 10.8819 0.737488 12.95C0.737488 15.0181 2.4069 16.6875 4.47499 16.6875C5.4592 16.6875 6.34374 16.3013 7.01649 15.6784L15.8868 20.861C15.8245 21.1227 15.7872 21.3968 15.7872 21.6708C15.7872 23.6766 17.4192 25.3087 19.425 25.3087C21.4308 25.3087 23.0628 23.6766 23.0628 21.6708C23.0628 19.665 21.4308 18.033 19.425 18.033Z" fill="black"/>
</svg>
