<svg width="26" height="24" viewBox="0 0 26 24" fill="none" xmlns="http://www.w3.org/2000/svg">
<path d="M18.5562 0.737488C16.3885 0.737488 14.3079 1.74661 12.95 3.34128C11.592 1.74661 9.51147 0.737488 7.34372 0.737488C3.50655 0.737488 0.491638 3.7524 0.491638 7.58957C0.491638 12.2988 4.72747 16.136 11.1435 21.9665L12.95 23.5985L14.7564 21.954C21.1725 16.136 25.4083 12.2988 25.4083 7.58957C25.4083 3.7524 22.3934 0.737488 18.5562 0.737488ZM13.0746 20.1102L12.95 20.2348L12.8254 20.1102C6.89522 14.7407 2.9833 11.19 2.9833 7.58957C2.9833 5.0979 4.85205 3.22915 7.34372 3.22915C9.2623 3.22915 11.1311 4.46253 11.7913 6.16932H14.1211C14.7689 4.46253 16.6376 3.22915 18.5562 3.22915C21.0479 3.22915 22.9166 5.0979 22.9166 7.58957C22.9166 11.19 19.0047 14.7407 13.0746 20.1102Z" fill="black"/>
</svg>
